<svg width="1440" height="810" viewBox="0 0 1440 810" fill="none" xmlns="http://www.w3.org/2000/svg">
  <defs>
    <linearGradient id="bg" x1="0" y1="0" x2="1440" y2="810" gradientUnits="userSpaceOnUse">
      <stop stop-color="#08111f"/>
      <stop offset="0.55" stop-color="#050b16"/>
      <stop offset="1" stop-color="#071426"/>
    </linearGradient>
    <linearGradient id="panel" x1="0" y1="0" x2="1" y2="1">
      <stop stop-color="#0d1a2e"/>
      <stop offset="1" stop-color="#07101f"/>
    </linearGradient>
    <linearGradient id="active" x1="0" y1="0" x2="1" y2="1">
      <stop stop-color="#2f7cff"/>
      <stop offset="1" stop-color="#1457d9"/>
    </linearGradient>
    <filter id="blueGlow" x="-30%" y="-30%" width="160%" height="160%">
      <feGaussianBlur stdDeviation="10" result="blur"/>
      <feColorMatrix in="blur" type="matrix" values="0 0 0 0 0.15 0 0 0 0 0.45 0 0 0 0 1 0 0 0 0.45 0"/>
      <feBlend in="SourceGraphic"/>
    </filter>
    <style>
      .brand { font: 700 24px ui-monospace, SFMono-Regular, Menlo, Consolas, monospace; fill: #4d91ff; }
      .nav { font: 600 14px Inter, system-ui, sans-serif; fill: #c7d2e5; }
      .muted { font: 500 12px Inter, system-ui, sans-serif; fill: #7d8ba3; }
      .tiny { font: 600 11px Inter, system-ui, sans-serif; fill: #7d8ba3; letter-spacing: .08em; }
      .label { font: 600 14px Inter, system-ui, sans-serif; fill: #dce7f8; }
      .body { font: 500 14px Inter, system-ui, sans-serif; fill: #aebbd0; }
      .title { font: 750 42px Inter, system-ui, sans-serif; fill: #f7fbff; }
      .h2 { font: 700 18px Inter, system-ui, sans-serif; fill: #eff6ff; }
      .mono { font: 700 17px ui-monospace, SFMono-Regular, Menlo, Consolas, monospace; fill: #f6f9ff; }
    </style>
  </defs>

  <rect width="1440" height="810" fill="url(#bg)"/>

  <!-- top navbar -->
  <rect x="0" y="0" width="1440" height="62" fill="#0b1526" stroke="#1b2b45"/>
  <text x="30" y="38" class="brand">Vishal Kale</text>
  <text x="520" y="37" class="nav">Home</text>
  <text x="600" y="37" class="nav">Experience</text>
  <text x="704" y="37" class="nav">Projects</text>
  <text x="796" y="37" class="nav">Contact</text>
  <text x="884" y="37" class="nav">Learning</text>
  <text x="980" y="37" class="nav">Admin</text>
  <rect x="1120" y="16" width="34" height="34" rx="8" fill="#101d32" stroke="#213552"/>
  <text x="1130" y="38" class="label">GH</text>
  <rect x="1166" y="16" width="34" height="34" rx="8" fill="#101d32" stroke="#213552"/>
  <text x="1178" y="38" class="label">in</text>
  <rect x="1216" y="14" width="42" height="38" rx="10" fill="#101d32"/>
  <text x="1228" y="39" class="label">sun</text>
  <rect x="1300" y="14" width="86" height="38" rx="9" fill="url(#active)" filter="url(#blueGlow)"/>
  <text x="1321" y="39" class="label">Logout</text>

  <!-- app shell -->
  <rect x="24" y="86" width="1392" height="690" rx="14" fill="#06101e" stroke="#1f314f"/>

  <!-- primary sidebar -->
  <rect x="24" y="86" width="220" height="690" fill="#081120"/>
  <text x="50" y="130" class="brand" font-size="20">Vishal Kale</text>
  <text x="50" y="154" class="muted">Developer Portfolio</text>
  <text x="70" y="218" class="nav">project types</text>
  <text x="70" y="270" class="nav">skills</text>
  <text x="70" y="322" class="nav">projects</text>
  <text x="70" y="374" class="nav">experiences</text>
  <text x="70" y="426" class="nav">contacts</text>
  <text x="70" y="478" class="nav">settings</text>
  <rect x="42" y="510" width="174" height="44" rx="10" fill="url(#active)" filter="url(#blueGlow)"/>
  <text x="70" y="538" class="label">learning</text>

  <!-- list panel -->
  <rect x="244" y="86" width="316" height="690" fill="#091423" stroke="#1d2e49"/>
  <text x="274" y="130" class="label">Learning / Tasks</text>
  <rect x="510" y="108" width="30" height="30" rx="7" fill="#0c1728" stroke="#263a5a"/>
  <text x="521" y="129" class="label">+</text>
  <rect x="274" y="154" width="252" height="34" rx="8" fill="#0d1a2d" stroke="#203451"/>
  <text x="292" y="176" class="muted">Search lessons...</text>

  <rect x="274" y="210" width="252" height="88" rx="10" fill="#0c1728" stroke="#263a5a"/>
  <text x="294" y="238" class="label">Build Production-Ready</text>
  <text x="294" y="260" class="label">PDF to Excel Converter</text>
  <circle cx="296" cy="278" r="4" fill="#2f7cff"/>
  <text x="308" y="282" class="muted">active</text>

  <rect x="274" y="314" width="252" height="104" rx="10" fill="#0d1d35" stroke="#2f7cff" filter="url(#blueGlow)"/>
  <text x="294" y="343" class="label">Complete JavaScript -</text>
  <text x="294" y="365" class="label">Skill Up</text>
  <circle cx="296" cy="392" r="4" fill="#2f7cff"/>
  <text x="308" y="396" class="muted">active</text>

  <rect x="274" y="434" width="252" height="88" rx="10" fill="#0c1728" stroke="#263a5a"/>
  <text x="294" y="462" class="label">Quick Task &amp;</text>
  <text x="294" y="484" class="label">Improvement Capture</text>
  <circle cx="296" cy="504" r="4" fill="#2f7cff"/>
  <text x="308" y="508" class="muted">active</text>

  <rect x="274" y="538" width="252" height="76" rx="10" fill="#0c1728" stroke="#263a5a"/>
  <text x="294" y="568" class="label">Algo App</text>
  <circle cx="296" cy="594" r="4" fill="#2f7cff"/>
  <text x="308" y="598" class="muted">active</text>

  <rect x="274" y="630" width="252" height="88" rx="10" fill="#0c1728" stroke="#263a5a"/>
  <text x="294" y="658" class="label">Frontend Developer</text>
  <text x="294" y="680" class="label">Roadmap</text>
  <circle cx="296" cy="700" r="4" fill="#2f7cff"/>
  <text x="308" y="704" class="muted">active</text>

  <!-- main detail -->
  <rect x="560" y="86" width="586" height="690" fill="#070e1b" stroke="#1d2e49"/>
  <text x="590" y="130" class="muted"><tspan fill="#2f7cff">Rocks</tspan>  /  JavaScript Fundamentals  /  Lesson 1</text>
  <text x="590" y="190" class="title">Master scope, closures,</text>
  <text x="590" y="242" class="title">hoisting, this, and</text>
  <text x="590" y="294" class="title">prototypes</text>
  <text x="590" y="336" class="body">A focused lesson for understanding how JavaScript manages context,</text>
  <text x="590" y="358" class="body">memory, execution, and object behavior in real applications.</text>

  <rect x="590" y="386" width="520" height="42" rx="9" fill="#0d1a2d" stroke="#203451"/>
  <text x="612" y="412" class="muted">Time 1h 20m</text>
  <text x="748" y="412" class="muted">Streak 4d</text>
  <text x="876" y="412" class="muted">Progress</text>
  <rect x="946" y="402" width="118" height="8" rx="4" fill="#25364f"/>
  <rect x="946" y="402" width="44" height="8" rx="4" fill="#2f7cff"/>
  <text x="1076" y="412" class="muted">37%</text>

  <!-- tabs -->
  <rect x="590" y="450" width="520" height="42" rx="9" fill="#091423" stroke="#1d2e49"/>
  <rect x="598" y="458" width="92" height="26" rx="7" fill="#173b78"/>
  <text x="617" y="476" class="label" font-size="12">Overview</text>
  <text x="716" y="476" class="muted">Practice</text>
  <text x="806" y="476" class="muted">Notes</text>
  <text x="884" y="476" class="muted">Theory</text>
  <text x="962" y="476" class="muted">Code</text>
  <text x="1030" y="476" class="muted">Resources</text>

  <text x="590" y="532" class="h2">What you will learn</text>
  <rect x="590" y="552" width="120" height="76" rx="10" fill="url(#panel)" stroke="#203451"/>
  <text x="612" y="582" class="label">Scope</text>
  <text x="612" y="604" class="muted">Lexical rules</text>
  <rect x="724" y="552" width="120" height="76" rx="10" fill="url(#panel)" stroke="#203451"/>
  <text x="746" y="582" class="label">Closures</text>
  <text x="746" y="604" class="muted">State memory</text>
  <rect x="858" y="552" width="120" height="76" rx="10" fill="url(#panel)" stroke="#203451"/>
  <text x="880" y="582" class="label">Hoisting</text>
  <text x="880" y="604" class="muted">Execution</text>
  <rect x="992" y="552" width="120" height="76" rx="10" fill="url(#panel)" stroke="#203451"/>
  <text x="1014" y="582" class="label">Prototype</text>
  <text x="1014" y="604" class="muted">Objects</text>

  <text x="590" y="672" class="h2">Comments</text>
  <rect x="590" y="694" width="520" height="48" rx="10" fill="#0d1a2d" stroke="#203451"/>
  <circle cx="616" cy="718" r="15" fill="#274fd0"/>
  <text x="608" y="723" class="label" font-size="11">VK</text>
  <text x="642" y="714" class="label">You</text>
  <text x="642" y="734" class="body">Need to revise closures with real API examples.</text>

  <!-- details panel -->
  <rect x="1146" y="86" width="270" height="690" fill="#07101e"/>
  <line x1="1146" y1="86" x2="1146" y2="776" stroke="#1d2e49"/>
  <text x="1174" y="130" class="label">Details</text>
  <text x="1328" y="130" class="muted">Hide</text>
  <line x1="1174" y1="154" x2="1386" y2="154" stroke="#1d2e49"/>
  <text x="1174" y="194" class="tiny">STATUS</text>
  <rect x="1174" y="208" width="188" height="42" rx="9" fill="#111e31" stroke="#263a5a"/>
  <circle cx="1196" cy="229" r="5" fill="#2f7cff"/>
  <text x="1212" y="234" class="label">In Progress</text>
  <text x="1174" y="286" class="tiny">DUE DATE</text>
  <rect x="1174" y="300" width="188" height="42" rx="9" fill="#111e31" stroke="#263a5a"/>
  <text x="1194" y="326" class="label">Jun 30, 2026</text>
  <text x="1174" y="378" class="tiny">PRIORITY</text>
  <rect x="1174" y="392" width="188" height="42" rx="9" fill="#111e31" stroke="#263a5a"/>
  <circle cx="1196" cy="413" r="5" fill="#f6bd35"/>
  <text x="1212" y="418" class="label">High</text>
  <text x="1174" y="470" class="tiny">CONFIDENCE SCORE</text>
  <rect x="1174" y="486" width="148" height="8" rx="4" fill="#25364f"/>
  <rect x="1174" y="486" width="104" height="8" rx="4" fill="#f6bd35"/>
  <text x="1338" y="492" class="muted">7/10</text>
  <line x1="1174" y1="526" x2="1386" y2="526" stroke="#1d2e49"/>
  <text x="1174" y="562" class="tiny">CREATED</text>
  <text x="1174" y="584" class="body">12/11/2025</text>
  <text x="1174" y="620" class="tiny">UPDATED</text>
  <text x="1174" y="642" class="body">06/22/2026</text>
  <text x="1174" y="678" class="tiny">TASK ID</text>
  <text x="1174" y="700" class="body">38F173</text>
  <rect x="1174" y="724" width="188" height="38" rx="8" fill="#3a101b" stroke="#d14254"/>
  <text x="1228" y="748" class="label" fill="#ff7586">Delete</text>
</svg>
